<svg width="561" height="164" viewBox="0 0 561 164" fill="none" xmlns="http://www.w3.org/2000/svg">
<g opacity="0.5" clip-path="url(#clip0_136_59978)">
<path d="M17.5494 83.5029H52.5675V73.4652H17.5494V83.5029ZM38.8553 81.9963H30.9553V74.9718H38.8553V81.9963ZM40.1451 74.9718H43.0472V81.9963H40.1451V74.9718ZM29.6574 81.9963H26.7553V74.9718H29.6574V81.9963ZM51.2777 81.9963H44.3289V74.9718H51.2777V81.9963ZM18.8392 74.9718H25.4736V81.9963H18.8392V74.9718Z" fill="#fff9"/>
<path d="M17.5494 97.7495H52.5675V87.7024H17.5494V97.7495ZM38.8553 96.2429H30.9553V89.2184H38.8553V96.2429ZM40.1451 89.209H43.0472V96.2335H40.1451V89.209ZM29.6574 96.2429H26.7553V89.2184H29.6574V96.2429ZM51.2777 96.2429H44.3289V89.2184H51.2777V96.2429ZM18.8392 89.209H25.4736V96.2335H18.8392V89.209Z" fill="#fff9"/>
<path d="M17.5494 112.345H52.5675V102.307H17.5494V112.345ZM38.8553 110.838H30.9553V103.814H38.8553V110.838ZM40.1451 103.804H43.0472V110.829H40.1451V103.804ZM29.6574 110.838H26.7553V103.814H29.6574V110.838ZM51.2777 110.838H44.3289V103.814H51.2777V110.838ZM18.8392 103.804H25.4736V110.829H18.8392V103.804Z" fill="#fff9"/>
<path d="M17.5494 126.582H52.5675V116.544H17.5494V126.582ZM38.8553 125.075H30.9553V118.051H38.8553V125.075ZM40.1451 118.051H43.0472V125.075H40.1451V118.051ZM29.6574 125.075H26.7553V118.051H29.6574V125.075ZM51.2777 125.075H44.3289V118.051H51.2777V125.075ZM18.8392 118.051H25.4736V125.075H18.8392V118.051Z" fill="#fff9"/>
<path d="M39.871 145.32H38.5812V152.222H39.871V145.32Z" fill="#fff9"/>
<path d="M81.0883 153.945H79.7985V157.382H81.0883V153.945Z" fill="#fff9"/>
<path d="M78.8392 44.0773H69.6171V60.9605H78.8392V44.0773ZM77.5494 59.4539H74.8731V54.5575H73.5833V59.4539H70.9069V45.5839H77.5414V59.4539H77.5494Z" fill="#fff9"/>
<path d="M78.8392 68.1262H69.6171V85.0095H78.8392V68.1262ZM77.5494 83.5123H74.8731V78.6159H73.5833V83.5123H70.9069V69.6328H77.5414V83.5123H77.5494Z" fill="#fff9"/>
<path d="M87.5212 83.5123H87.3681V78.6159H86.0783V83.5123H83.4019V69.6328H90.6893V68.1262H82.1121V85.0189H87.5212V83.5123Z" fill="#fff9"/>
<path d="M91.3342 44.0773H82.1202V60.9605H91.3342V44.0773ZM90.0444 59.4539H87.3681V54.5575H86.0783V59.4539H83.4019V45.5839H90.0363V59.4539H90.0444Z" fill="#fff9"/>
<path d="M78.8392 91.8174H69.6171V108.701H78.8392V91.8174ZM77.5494 107.194H74.8731V102.298H73.5833V107.194H70.9069V93.324H77.5414V107.194H77.5494Z" fill="#fff9"/>
<path d="M87.5051 102.298H86.2153V107.194H83.4019V93.324H89.0045V91.8174H82.1121V108.701H87.5051V102.298Z" fill="#fff9"/>
<path d="M78.8392 115.904H69.6171V132.787H78.8392V115.904ZM77.5494 131.29H74.8731V126.394H73.5833V131.29H70.9069V117.42H77.5414V131.29H77.5494Z" fill="#fff9"/>
<path d="M87.5051 126.394H86.2153V131.29H83.4019V117.411H89.0045V115.904H82.1121V132.797H87.5051V126.394Z" fill="#fff9"/>
<path d="M102.604 145.97V160.97H119.952V145.97H102.604ZM118.662 159.463H103.894V147.476H118.662V159.463Z" fill="#fff9"/>
<path d="M115.284 150.109L110.333 155.897L111.245 156.962L116.197 151.174L115.284 150.109Z" fill="#fff9"/>
<path d="M160.137 153.136H158.847V156.431H160.137V153.136Z" fill="#fff9"/>
<path d="M167.973 137.806H147.884V139.313H167.973V137.806Z" fill="#fff9"/>
<path d="M167.973 133.098H147.884V134.604H167.973V133.098Z" fill="#fff9"/>
<path d="M167.973 128.39H147.884V129.896H167.973V128.39Z" fill="#fff9"/>
<path d="M167.973 123.682H147.884V125.188H167.973V123.682Z" fill="#fff9"/>
<path d="M167.973 118.974H147.884V120.48H167.973V118.974Z" fill="#fff9"/>
<path d="M167.973 114.266H147.884V115.772H167.973V114.266Z" fill="#fff9"/>
<path d="M167.973 109.557H147.884V111.064H167.973V109.557Z" fill="#fff9"/>
<path d="M167.973 104.849H147.884V106.356H167.973V104.849Z" fill="#fff9"/>
<path d="M167.973 100.141H147.884V101.648H167.973V100.141Z" fill="#fff9"/>
<path d="M167.973 95.4331H147.884V96.9397H167.973V95.4331Z" fill="#fff9"/>
<path d="M167.973 90.7251H147.884V92.2317H167.973V90.7251Z" fill="#fff9"/>
<path d="M187.537 155.744H186.248V158.136H187.537V155.744Z" fill="#fff9"/>
<path d="M197.936 145.979V159.953H217.904V145.979H197.936ZM216.614 158.446H199.226V147.486H216.614V158.446Z" fill="#fff9"/>
<path d="M212.873 149.453L208.264 154.842L209.176 155.907L213.786 150.518L212.873 149.453Z" fill="#fff9"/>
<path d="M233.253 104.388V110.151V117.872V123.635V137.279H246.304V94.4445H233.253V104.388ZM234.543 105.895H245.014V108.644H234.543V105.895ZM234.543 110.141H245.014V117.863H234.543V110.141ZM245.014 119.379V122.128H234.543V119.379H245.014ZM234.543 135.763V123.625H245.014V135.763H234.543ZM245.014 95.9416V104.388H234.543V95.9416H245.014Z" fill="#fff9"/>
<path d="M265.603 94.8682H251.568V104.821V110.584V118.305V124.068V137.712H265.603V124.068V118.305V110.584V104.821V94.8682ZM252.858 106.328H264.313V109.077H252.858V106.328ZM252.858 96.3748H264.313V104.821H252.858V96.3748ZM264.313 122.552H252.858V119.802H264.313V122.552ZM264.313 136.196H252.858V124.058H264.313V136.196ZM264.313 118.305H252.858V110.584H264.313V118.305Z" fill="#fff9"/>
<path d="M249.577 19.9529C250.319 20.2919 251.092 20.4614 251.891 20.4614C255.405 20.4614 258.267 17.1186 258.267 13.0132C258.267 9.12429 255.768 5.96045 252.495 5.60264C251.318 2.23164 248.505 0 245.361 0C242.201 0 239.404 2.23164 238.227 5.61205C238.017 5.5838 237.816 5.57439 237.614 5.57439C234.099 5.57439 231.238 8.91714 231.238 13.0226C231.238 17.1281 234.099 20.4708 237.614 20.4708C238.46 20.4708 239.275 20.2825 240.049 19.9058C241.258 21.5254 242.975 22.4388 244.829 22.4388C246.667 22.4294 248.368 21.5348 249.577 19.9529ZM244.837 20.9228C243.217 20.9228 241.725 20.0471 240.758 18.5122L240.427 17.9944L239.944 18.2863C239.218 18.7288 238.428 18.9454 237.614 18.9454C234.809 18.9454 232.527 16.2806 232.527 13.0038C232.527 9.72693 234.809 7.06215 237.614 7.06215C237.912 7.06215 238.211 7.09981 238.533 7.16573L239.089 7.28814L239.267 6.66667C240.129 3.57815 242.58 1.49718 245.361 1.49718C248.102 1.49718 250.536 3.53107 251.423 6.5725L251.568 7.07156L252.02 7.08098C254.793 7.16572 256.969 9.77401 256.969 13.0132C256.969 16.29 254.688 18.9548 251.882 18.9548C251.117 18.9548 250.367 18.7571 249.666 18.3522L249.19 18.0791L248.868 18.5687C247.9 20.0659 246.433 20.9228 244.837 20.9228Z" fill="#fff9"/>
<path d="M494.583 61.2053C495.792 62.8249 497.509 63.7382 499.364 63.7382C501.193 63.7382 502.894 62.8437 504.104 61.2618C504.845 61.6008 505.619 61.7702 506.417 61.7702C509.932 61.7702 512.794 58.4275 512.794 54.322C512.794 50.4331 510.295 47.2693 507.022 46.9115C505.845 43.5311 503.031 41.2994 499.887 41.2994C496.727 41.2994 493.93 43.5311 492.753 46.9115C488.964 46.4501 485.764 49.9812 485.764 54.322C485.764 58.4275 488.626 61.7702 492.141 61.7702C492.995 61.7702 493.809 61.5819 494.583 61.2053ZM487.062 54.322C487.062 51.0452 489.343 48.3804 492.149 48.3804C492.447 48.3804 492.745 48.4181 493.068 48.484L493.624 48.6064L493.801 47.9849C494.664 44.8964 497.114 42.8154 499.896 42.8154C502.636 42.8154 505.071 44.8588 505.958 47.8908L506.103 48.3898L506.554 48.3993C509.335 48.484 511.504 51.0829 511.504 54.3315C511.504 57.6083 509.222 60.2731 506.417 60.2731C505.651 60.2731 504.902 60.0753 504.2 59.6704L503.725 59.3974L503.402 59.887C502.427 61.3748 500.96 62.2316 499.364 62.2316C497.743 62.2316 496.252 61.3559 495.285 59.8211L494.962 59.3032L494.478 59.5951C493.745 60.0377 492.963 60.2542 492.149 60.2542C489.343 60.2637 487.062 57.5989 487.062 54.322Z" fill="#fff9"/>
<path d="M26.7715 28.2486C27.9807 29.8682 29.6977 30.7816 31.5518 30.7816C33.3817 30.7816 35.0827 29.887 36.2918 28.3051C37.0335 28.6441 37.8074 28.8136 38.6054 28.8136C42.1201 28.8136 44.9819 25.4708 44.9819 21.3654C44.9819 17.4765 42.4829 14.3126 39.21 13.9548C38.0331 10.5744 35.2197 8.34277 32.0758 8.34277C28.9158 8.34277 26.1185 10.5744 24.9416 13.9548C24.732 13.9266 24.5305 13.9172 24.3289 13.9172C20.8142 13.9172 17.9525 17.2599 17.9525 21.3654C17.9525 25.4708 20.8142 28.8136 24.3289 28.8136C25.1754 28.823 25.9976 28.6253 26.7715 28.2486ZM19.2503 21.3748C19.2503 18.098 21.5317 15.4332 24.337 15.4332C24.6352 15.4332 24.9416 15.4708 25.256 15.5367L25.8122 15.6592L25.9895 15.0283C26.8521 11.9398 29.3027 9.85878 32.0839 9.85878C34.8247 9.85878 37.2592 11.8927 38.1459 14.9341L38.291 15.4332L38.7425 15.4426C41.5236 15.5273 43.6921 18.1356 43.6921 21.3748C43.6921 24.6516 41.4108 27.3164 38.6054 27.3164C37.8396 27.3164 37.0899 27.1187 36.3886 26.7138L35.913 26.4407L35.5905 26.9303C34.6151 28.4181 33.1479 29.275 31.5518 29.275C29.9315 29.275 28.4402 28.3993 27.4728 26.8644L27.1423 26.3465L26.6586 26.6384C25.9331 27.081 25.1431 27.2976 24.3289 27.2976C21.5317 27.3164 19.2503 24.6516 19.2503 21.3748Z" fill="#fff9"/>
<path d="M124.668 50.3672C120.855 49.9058 117.678 53.4369 117.678 57.7777C117.678 61.8832 120.54 65.2259 124.055 65.2259C124.901 65.2259 125.716 65.0376 126.489 64.661C127.699 66.2806 129.416 67.1939 131.27 67.1939C133.1 67.1939 134.801 66.2994 136.01 64.7175C136.751 65.0564 137.525 65.2259 138.323 65.2259C141.838 65.2259 144.7 61.8832 144.7 57.7777C144.7 53.8888 142.201 50.725 138.928 50.3672C137.751 46.9868 134.946 44.7551 131.794 44.7551C128.642 44.7551 125.845 46.9868 124.668 50.3672ZM137.872 51.337L138.017 51.8361L138.468 51.8455C141.25 51.9303 143.418 54.5291 143.418 57.7777C143.418 61.0546 141.137 63.7193 138.331 63.7193C137.566 63.7193 136.816 63.5216 136.115 63.1167L135.639 62.8436L135.317 63.3333C134.341 64.821 132.874 65.6779 131.278 65.6779C129.658 65.6779 128.166 64.8022 127.199 63.2674L126.868 62.7495L126.385 63.0414C125.651 63.4839 124.869 63.7005 124.055 63.7005C121.25 63.7005 118.968 61.0357 118.968 57.7589C118.968 54.4821 121.25 51.8173 124.055 51.8173C124.353 51.8173 124.651 51.8549 124.982 51.9209L125.538 52.0433L125.716 51.4218C126.578 48.3333 129.029 46.2523 131.81 46.2523C134.543 46.2617 136.985 48.305 137.872 51.337Z" fill="#fff9"/>
<path d="M536.397 154.162C542.056 153.767 546.562 148.277 546.562 141.573C546.562 138.249 545.426 135.038 543.435 132.684C544.257 131.073 544.684 129.247 544.684 127.354C544.684 124.783 543.886 122.345 542.435 120.433C542.927 119.256 543.185 117.947 543.185 116.638C543.185 111.855 539.847 107.957 535.752 107.957C531.657 107.957 528.32 111.855 528.32 116.638C528.32 117.947 528.578 119.256 529.069 120.433C527.618 122.345 526.82 124.783 526.82 127.354C526.82 129.247 527.256 131.073 528.07 132.684C526.071 135.038 524.942 138.239 524.942 141.573C524.942 148.277 529.448 153.767 535.107 154.162V163.493H507.167V151.968C514.1 151.573 519.646 144.878 519.646 136.686C519.646 132.599 518.235 128.672 515.768 125.8C516.8 123.823 517.34 121.563 517.34 119.237C517.34 116.083 516.357 113.098 514.551 110.772C515.172 109.322 515.502 107.712 515.502 106.092C515.502 100.311 511.472 95.6027 506.522 95.6027C501.572 95.6027 497.55 100.311 497.55 106.092C497.55 107.712 497.88 109.322 498.501 110.772C496.695 113.098 495.712 116.083 495.712 119.237C495.712 121.573 496.252 123.823 497.292 125.8C494.817 128.672 493.414 132.599 493.414 136.686C493.414 144.878 498.952 151.573 505.893 151.968V163.493H470.399V154.162C476.058 153.767 480.565 148.277 480.565 141.573C480.565 138.249 479.428 135.038 477.437 132.684C478.259 131.073 478.686 129.247 478.686 127.354C478.686 124.783 477.888 122.345 476.437 120.433C476.929 119.256 477.187 117.947 477.187 116.638C477.187 111.855 473.85 107.957 469.754 107.957C465.659 107.957 462.322 111.855 462.322 116.638C462.322 117.947 462.58 119.256 463.072 120.433C461.621 122.345 460.823 124.783 460.823 127.354C460.823 129.247 461.258 131.073 462.072 132.684C460.073 135.038 458.944 138.239 458.944 141.573C458.944 148.277 463.451 153.767 469.11 154.162V163.493H437.243V161.243H439.686V159.736H422.693V161.243H424.805V163.493H414.914V154.162C420.573 153.767 425.079 148.277 425.079 141.573C425.079 138.249 423.942 135.047 421.951 132.684C422.773 131.073 423.201 129.247 423.201 127.354C423.201 124.783 422.403 122.345 420.952 120.433C421.443 119.256 421.701 117.947 421.701 116.638C421.701 111.855 418.364 107.957 414.269 107.957C410.174 107.957 406.836 111.855 406.836 116.638C406.836 117.947 407.094 119.247 407.586 120.433C406.135 122.345 405.337 124.783 405.337 127.354C405.337 129.247 405.772 131.073 406.586 132.684C404.587 135.038 403.451 138.249 403.451 141.573C403.451 148.277 407.957 153.767 413.616 154.162V163.493H387.409V143.748C393.414 143.352 398.211 137.533 398.211 130.424C398.211 126.893 397.002 123.484 394.873 120.989C395.752 119.275 396.212 117.335 396.212 115.32C396.212 112.589 395.365 110 393.817 107.976C394.349 106.723 394.623 105.339 394.623 103.936C394.623 98.8795 391.101 94.7552 386.764 94.7552C382.435 94.7552 378.904 98.8701 378.904 103.936C378.904 105.33 379.178 106.714 379.71 107.976C378.162 110 377.316 112.589 377.316 115.32C377.316 117.335 377.775 119.275 378.654 120.989C376.526 123.484 375.317 126.883 375.317 130.424C375.317 137.542 380.105 143.362 386.111 143.748V163.493H368.723V35.9981H364.2V29.9812V26.0452V18.823H352.31H348.94H340.742H337.372H329.48H324.724H319.251V35.9981H317.517H311.036V55.226H294.962H290.028H286.183L275.051 65.4897H270.004V84.774H222.096V91.8927H226.312V139.793L193.728 129.623L193.511 129.557L173.849 139.642V84.5951H170.947V79.1149H166.312V74.9812H165.022V79.1149H154.591V84.5951H141.258V136.394H100.363V132.09H104.934V126.488H100.363V122.674H104.934V117.072H100.363V113.258H104.934V107.655H100.363V103.842H104.934V98.2392H100.363V94.4256H104.934V88.823H100.363V85.0094H104.934V79.4068H100.363V72.0433H95.9291V36.0358H64.0065V75.0377H58.1298V67.194H54.47V63.5217H58.1298V54.1714H22.628V63.5217H27.1987V67.194H12.1806V163.503H0V165.009H12.1806H26.3523H43.9662H56.8481H58.1379H65.2963H90.2056H99.073H100.363H126.884H134.76H139.863H141.258H152.479H162.636H173.857H182.201H189.521H226.312H254.341H267.417H269.996H270.641H290.02H294.954H311.028H312.318H317.509H322.265H348.723H351.496H352.785H357.235H358.525H361.298H368.715H560.992V163.503H536.397V154.162ZM526.232 141.582C526.232 138.465 527.36 135.471 529.335 133.371L529.747 132.928L529.432 132.392C528.561 130.904 528.11 129.171 528.11 127.373C528.11 125.019 528.892 122.787 530.311 121.102L530.657 120.697L530.416 120.198C529.892 119.115 529.609 117.891 529.609 116.657C529.609 112.702 532.366 109.482 535.752 109.482C539.138 109.482 541.895 112.702 541.895 116.657C541.895 117.891 541.613 119.124 541.089 120.198L540.847 120.697L541.193 121.102C542.612 122.787 543.394 125.009 543.394 127.373C543.394 129.171 542.935 130.913 542.072 132.392L541.758 132.928L542.169 133.371C544.144 135.471 545.272 138.465 545.272 141.582C545.272 147.458 541.347 152.279 536.397 152.665V148.654C542.379 144.171 542.322 137.571 542.314 137.288L541.024 137.326C541.024 137.561 541.056 142.881 536.397 146.855V133.324C538.686 131.422 539.654 127.881 540.025 125.866L538.767 125.546C538.485 127.09 537.816 129.642 536.397 131.347V123.117H535.107V128.418C532.181 125.716 531.593 122.976 531.584 122.947L530.956 123.117L530.327 123.277C530.359 123.428 531.101 127.043 535.107 130.292V141.667C533.052 140.499 531.536 138.23 530.585 136.422L529.48 137.203C530.601 139.35 532.479 142.072 535.099 143.286V152.665C530.158 152.269 526.232 147.458 526.232 141.582ZM494.688 136.686C494.688 132.815 496.091 129.087 498.549 126.478L498.961 126.036L498.646 125.499C497.566 123.654 496.994 121.488 496.994 119.247C496.994 116.309 497.969 113.531 499.742 111.431L500.089 111.026L499.847 110.527C499.186 109.171 498.84 107.646 498.84 106.092C498.84 101.139 502.29 97.1093 506.53 97.1093C510.77 97.1093 514.22 101.139 514.22 106.092C514.22 107.637 513.874 109.171 513.213 110.527L512.971 111.026L513.318 111.431C515.091 113.531 516.067 116.299 516.067 119.247C516.067 121.488 515.494 123.654 514.414 125.508L514.1 126.045L514.511 126.488C516.961 129.105 518.372 132.825 518.372 136.695C518.372 144.058 513.406 150.085 507.183 150.48V145.292C514.519 139.849 514.454 131.78 514.446 131.441L513.156 131.478C513.164 131.78 513.189 138.55 507.183 143.493V126.507C510.004 124.228 511.189 119.849 511.641 117.382L510.383 117.062C510.012 119.068 509.126 122.458 507.191 124.567V114.04H505.901V120.904C502.048 117.476 501.298 113.908 501.29 113.87L500.033 114.2C500.065 114.388 500.968 118.795 505.901 122.75V137.062C503.241 135.65 501.282 132.759 500.081 130.461L498.977 131.243C500.355 133.88 502.661 137.232 505.893 138.682V150.48C499.654 150.066 494.688 144.049 494.688 136.686ZM460.218 141.582C460.218 138.465 461.347 135.471 463.322 133.371L463.733 132.928L463.418 132.392C462.548 130.904 462.096 129.171 462.096 127.373C462.096 125.019 462.878 122.787 464.297 121.102L464.644 120.697L464.402 120.198C463.878 119.115 463.596 117.891 463.596 116.657C463.596 112.702 466.353 109.482 469.738 109.482C473.124 109.482 475.881 112.702 475.881 116.657C475.881 117.891 475.599 119.124 475.075 120.198L474.833 120.697L475.18 121.102C476.599 122.787 477.38 125.009 477.38 127.373C477.38 129.171 476.921 130.913 476.058 132.392L475.744 132.928L476.155 133.371C478.13 135.471 479.259 138.465 479.259 141.582C479.259 147.458 475.333 152.279 470.383 152.665V148.654C476.365 144.171 476.308 137.571 476.3 137.288L475.01 137.326C475.01 137.561 475.043 142.881 470.383 146.855V133.324C472.673 131.422 473.64 127.881 474.011 125.866L472.753 125.546C472.471 127.09 471.802 129.642 470.383 131.347V123.117H469.093V128.418C466.167 125.716 465.579 122.976 465.571 122.947L464.942 123.117L464.313 123.277C464.345 123.428 465.087 127.043 469.093 130.292V141.667C467.038 140.499 465.522 138.23 464.571 136.422L463.467 137.203C464.587 139.35 466.466 142.072 469.085 143.286V152.665C464.144 152.269 460.218 147.458 460.218 141.582ZM404.748 141.582C404.748 138.465 405.877 135.471 407.852 133.371L408.263 132.928L407.949 132.392C407.086 130.904 406.627 129.171 406.627 127.373C406.627 125.019 407.409 122.787 408.827 121.102L409.174 120.697L408.932 120.198C408.408 119.115 408.126 117.891 408.126 116.657C408.126 112.702 410.883 109.482 414.269 109.482C417.655 109.482 420.411 112.702 420.411 116.657C420.411 117.891 420.129 119.124 419.605 120.198L419.363 120.697L419.71 121.102C421.129 122.787 421.911 125.009 421.911 127.373C421.911 129.171 421.451 130.913 420.589 132.392L420.274 132.928L420.686 133.371C422.661 135.48 423.789 138.475 423.789 141.582C423.789 147.458 419.863 152.279 414.914 152.665V148.654C420.895 144.171 420.839 137.571 420.831 137.288L419.541 137.326C419.541 137.561 419.573 142.881 414.914 146.855V133.324C417.203 131.422 418.17 127.881 418.541 125.876L417.284 125.556C417.002 127.1 416.332 129.652 414.914 131.356V123.126H413.624V128.428C410.698 125.725 410.109 122.985 410.101 122.957L409.472 123.126L408.844 123.286C408.876 123.437 409.609 127.053 413.624 130.301V141.676C411.568 140.509 410.045 138.239 409.101 136.431L407.997 137.213C409.118 139.36 410.996 142.081 413.616 143.296V152.674C408.674 152.269 404.748 147.458 404.748 141.582ZM376.615 130.424C376.615 127.1 377.824 123.908 379.928 121.667L380.339 121.224L380.025 120.687C379.097 119.105 378.614 117.251 378.614 115.33C378.614 112.815 379.452 110.433 380.968 108.644L381.314 108.239L381.072 107.74C380.508 106.582 380.21 105.273 380.21 103.955C380.21 99.727 383.152 96.2806 386.78 96.2806C390.399 96.2806 393.35 99.7175 393.35 103.955C393.35 105.273 393.052 106.582 392.487 107.74L392.245 108.239L392.592 108.644C394.108 110.443 394.946 112.815 394.946 115.33C394.946 117.251 394.454 119.105 393.535 120.687L393.221 121.224L393.632 121.667C395.736 123.908 396.945 127.1 396.945 130.424C396.945 136.704 392.737 141.855 387.433 142.241V137.91C393.785 133.164 393.729 126.158 393.721 125.857L392.431 125.895C392.431 125.96 392.487 131.827 387.433 136.102V121.62C389.867 119.614 390.899 115.847 391.286 113.719L390.029 113.399C389.722 115.066 388.989 117.844 387.433 119.661V110.8H386.143V116.535C382.959 113.635 382.33 110.669 382.322 110.631L381.693 110.8L381.064 110.96C381.097 111.121 381.879 114.953 386.143 118.399V130.584C383.918 129.35 382.282 126.912 381.266 124.972L380.162 125.753C381.355 128.032 383.346 130.923 386.143 132.203V142.241C380.831 141.846 376.615 136.704 376.615 130.424ZM362.91 35.9981H361.306H358.533H357.243H352.794H351.504H348.731H329.48V29.9812H362.91V35.9981ZM362.91 20.3296V26.0452H352.31V20.3296H362.91ZM348.94 20.3296V26.0452H340.742V20.3296H348.94ZM337.364 20.3296V26.0452H329.472V20.3296H337.364ZM328.19 20.3296V27.5518H338.662V20.3296H339.452V27.5518H350.23V20.3296H351.02V27.5518H362.91V28.4746H328.19V35.9981H326.014V20.3296H328.19ZM320.54 20.3296H324.724V35.9981H322.274H320.54V20.3296ZM311.036 56.7326V66.8268H294.962V56.7326H311.036ZM294.962 116.045V113.296H311.036V116.045H294.962ZM223.394 86.2806H272.866V90.3861H223.394V86.2806ZM227.666 142.081H249.392V143.616H227.666V142.081ZM193.624 131.139L226.32 141.347V144.04L193.737 133.87L193.519 133.804L173.857 143.889V141.281L193.624 131.139ZM194.212 135.574L220.274 143.71V163.493H194.212V135.574ZM221.564 144.115L222.894 144.529V163.493H221.564V144.115ZM177.55 143.644V163.503H176.203V144.341L177.55 143.644ZM169.666 80.6215V84.5951H166.32V80.6215H169.666ZM155.889 80.6215H165.03V84.5951H155.889V80.6215ZM142.556 86.1017H154.599H170.955H172.568V140.301V146.196V157.74H162.636V144.567H152.479V157.74H142.547V143.239V136.394V86.1017H142.556ZM141.266 137.9V141.733H139.871H100.371V137.9H141.266ZM103.644 130.593H95.26V128.004H103.644V130.593ZM103.644 121.177H95.26V118.588H103.644V121.177ZM103.644 111.761H95.26V109.171H103.644V111.761ZM103.644 102.345H95.26V99.7552H103.644V102.345ZM103.644 92.9285H95.26V90.339H103.644V92.9285ZM103.644 83.5123H95.26V80.9228H103.644V83.5123ZM65.2963 37.5424H94.6393V72.0528H90.2056V157.505H83.8372V141.733H72.8739V157.505H65.2963V94.3032V75.0377V37.5424ZM82.5555 163.493H74.1637V143.239H82.5474V163.493H82.5555ZM53.1883 67.194H51.2213V63.5217H53.1883V67.194ZM49.9315 63.5123V67.1846H31.7453V63.5123H49.9315ZM23.9178 55.6686H56.84V62.0057H23.9178V55.6686ZM28.4885 63.5123H30.4555V67.1846H28.4885V63.5123ZM27.634 163.493V134.058H42.6683V163.493H27.634ZM43.9581 163.493V132.552H26.3523V163.493H13.4704V68.6912H56.8481V75.0283V163.493H43.9581ZM58.1298 163.493V76.5443H64.0065V94.3127V163.503H58.1298V163.493ZM65.2963 159.011H72.8739V163.493H65.2963V159.011ZM83.8372 163.493V159.011H90.2056V163.493H83.8372ZM91.4954 163.493V73.5594H99.073V79.4162H93.9702V85.0189H99.073V88.8324H93.9702V94.4351H99.073V98.2486H93.9702V103.851H99.073V107.665H93.9702V113.267H99.073V117.081H93.9702V122.684H99.073V126.497H93.9702V132.1H99.073V136.403V141.742V143.249V163.503H91.4954V163.493ZM100.363 143.239H121.782V163.493H100.363V143.239ZM128.174 163.493V149.529H133.47V163.493H128.174ZM134.76 163.493V148.023H126.884V163.493H123.071V143.239H138.573V163.493H134.76ZM139.863 163.493V143.239H141.258V163.493H139.863ZM142.556 163.493V159.247H152.487V163.493H142.556ZM153.769 163.493V146.073H161.346V163.493H153.769ZM162.636 163.493V159.247H172.568V163.493H162.636ZM173.857 145.537L174.905 145V163.503H173.857V145.537ZM183.491 163.493V150.198H188.231V163.493H183.491ZM182.201 148.701V163.503H178.831V142.985L192.914 135.753V163.503H189.512V148.701H182.201ZM224.184 163.493V144.934L226.312 145.603V148.004V152.552V155.367V159.915V163.493H224.184ZM227.602 149.51H249.392V151.045H227.602V149.51ZM227.602 156.874H249.392V158.409H227.602V156.874ZM255.631 163.493V142.072H266.127V163.493H255.631ZM267.425 163.493V140.574H254.349V163.493H227.61V159.915H250.689V155.367H227.61V152.561H250.689V148.013H227.61V146.017L227.674 146.036V145.141H250.689V140.593H227.674V140.235L227.61 140.217V91.9115H270.012V163.522H267.425V163.493ZM271.294 163.493V91.8927H274.148V84.774H271.294V66.9963H275.494L286.627 56.7326H290.028V163.503H271.294V163.493ZM291.318 163.493V56.7326H293.672V68.3334H311.036V69.4633H293.672V82.1093H311.036V83.2392H293.672V95.8946H311.036V97.0245H293.672V110.669H311.036V111.695H293.583V117.655H311.036V118.682H293.672V131.337H311.036V132.467H293.672V145.659H311.036V147.731H293.672V163.512H291.318V163.493ZM311.036 70.9699V80.6027H294.962V70.9699H311.036ZM311.036 84.7458V94.388H294.962V84.7458H311.036ZM311.036 98.5217V109.153H294.962V98.5217H311.036ZM311.036 120.179V129.821H294.962V120.179H311.036ZM311.036 133.955V144.134H294.962V133.955H311.036ZM294.962 163.493V149.218H311.036V163.493H294.962ZM312.326 163.493V149.218H312.415V144.134H312.326V133.955H312.415V129.812H312.326V120.17H312.415V116.036H312.326V113.286H312.415V109.143H312.326V98.5123H312.415V94.3691H312.326V84.7458H312.415V80.6027H312.326V70.9699H312.415V66.8268H312.326V55.226V37.5047H317.517V163.503H312.326V163.493ZM318.807 163.493V37.5047H319.251V37.9096H320.984V61.1959H325.724H329.706H345.732V62.9285H320.976V87.2128H325.716H328.416H329.706H342.37H345.74V88.9454H320.984V113.23H325.724H329.706H345.732V114.962H320.976V139.247H325.716H329.706H345.732V140.979H320.976V163.484H318.807V163.493ZM341.08 59.6045H329.706V45.6121H341.08V59.6045ZM328.416 59.6893H327.005V45.6121H328.416V59.6893ZM341.08 85.7062H329.706V71.6384H341.08V85.7062ZM328.416 85.7062H327.005V71.6384H328.416V85.7062ZM341.08 111.629H329.706V97.6554H341.08V111.629ZM328.416 111.733H327.005V97.6554H328.416V111.733ZM341.08 137.655H329.706V123.672H341.08V137.655ZM328.416 137.75H327.005V123.672H328.416V137.75ZM322.274 163.493V142.495H347.03V137.75H342.37V122.166H329.706H328.416H325.716V137.75H322.265V116.478H347.022V111.733H342.362V96.1488H329.706H328.416H325.716V111.733H322.265V90.452H347.022V85.7062H342.362V70.1319H329.706H328.416H325.716V85.7157H322.265V64.4351H347.022V59.6893H342.362V44.1055H329.706H328.416H325.716V59.6893H322.265V37.9096H324.716H329.472H348.723V163.503H322.274V163.493ZM350.02 163.493V37.9096H351.504V163.503H350.02V163.493ZM352.794 163.493V37.9096H357.243V163.503H352.794V163.493ZM358.533 163.493V37.9096H360.016V163.503H358.533V163.493ZM361.306 163.493V37.9096H364.2V37.5047H367.433V163.503H361.306V163.493ZM426.079 161.243H435.938V163.493H426.079V161.243Z" fill="#fff9"/>
<path d="M437.792 156.601H425.297V158.107H437.792V156.601Z" fill="#fff9"/>
<path d="M460.782 30.6309H462.072C462.072 28.5405 463.523 26.8456 465.313 26.8456V25.339C463.66 25.339 462.217 26.3842 461.427 27.9284C460.637 26.3842 459.194 25.339 457.542 25.339V26.8456C459.331 26.8456 460.782 28.5405 460.782 30.6309Z" fill="#fff9"/>
<path d="M240.863 44.8965V46.4031C242.652 46.4031 244.103 48.098 244.103 50.1884H245.393C245.393 48.098 246.852 46.4031 248.634 46.4031V44.8965C246.981 44.8965 245.538 45.9417 244.748 47.4859C243.958 45.9323 242.515 44.8965 240.863 44.8965Z" fill="#fff9"/>
</g>
<defs>
<clipPath id="clip0_136_59978">
<rect width="561" height="165" fill="white"/>
</clipPath>
</defs>
</svg>
